<svg xmlns="http://www.w3.org/2000/svg" width="124.201" height="32" viewBox="0 0 124.201 32"><defs><style>.a{fill:#cb1b45;}.b{fill:#113284;}</style></defs><g transform="translate(62.1 16)"><g transform="translate(-62.1 -16)"><path class="a" d="M284.459,60.519a2.659,2.659,0,1,0-2.659-2.659A2.659,2.659,0,0,0,284.459,60.519Z" transform="translate(-199.448 -39.068)"/><path class="b" d="M315.6,52.532a35.481,35.481,0,0,0,4.062.146h9.556a10.439,10.439,0,0,0,2.63-.2l1.315,1.461a6.019,6.019,0,0,0-.555,1.257,15.866,15.866,0,0,1-5.2,6.78A19.1,19.1,0,0,1,322,64.836a9.745,9.745,0,0,0-1.87-3.1,13.513,13.513,0,0,0,5.377-2.455c1.461-1.14,2.338-1.666,3.127-3.595H319.6c-1.637,0-3.273.029-4,.088Zm3.068-5.932a11.281,11.281,0,0,0,2.367.146h6.488a9.729,9.729,0,0,0,2.338-.146v3.215a12.564,12.564,0,0,0-2.309-.088h-6.575a19.755,19.755,0,0,0-2.309.088Z" transform="translate(-223.37 -32.982)"/><path class="b" d="M10.258.117H5.289C3.361.117,1.49.088,0,0L.058,4.15c1.2-.584,4.705-.643,4.705-.643h5.289c4.267,0,6.517,2.1,6.517,6.079S14.2,15.9,10.053,15.9c0,0-9.381.088-9.965-.5v16.57H4.793a123.612,123.612,0,0,1-.058-12.742h5.319c6.692,0,10.521-3.595,10.521-9.878S16.891.117,10.258.117Z"/><path class="b" d="M104.248,3.741h10.024a30.276,30.276,0,0,1,4.793.292V0a32.117,32.117,0,0,1-4.793.292h-9.527c-1.724,0-2.893-.029-4.062-.088L98.9,0V4.033C100.244,3.828,104.248,3.741,104.248,3.741Z" transform="translate(-69.998)"/><path class="b" d="M109.1,47.992v3.39h9.381a30.859,30.859,0,0,1,4.851.292V47.7a34.925,34.925,0,0,1-4.851.292Z" transform="translate(-77.217 -33.76)"/><path class="b" d="M104.177,95.492H114.2a48.956,48.956,0,0,0,5.991-.292v4.033a51.292,51.292,0,0,0-5.991-.292h-9.527c-1.724,0-2.893.029-4.091.088l-1.783.2V95.2C100.174,95.4,104.177,95.492,104.177,95.492Z" transform="translate(-69.927 -67.379)"/><path class="b" d="M218.343,54.281a8.071,8.071,0,0,0-2.046-1.812,2.367,2.367,0,0,0-1.286-.146c-1.52.117-2.659,1.49-3.536,2.6s-3.945,5.027-4.676,5.786c-.029.029,2.367,2.952,2.367,2.952s.818-.906,3.448-4.442c1.637-2.133,1.9-2.4,2.659-2.4s1.11.38,1.987,1.432c3.244,3.711,9.059,10.17,9.059,10.754a16.052,16.052,0,0,1,4.15-2.367Z" transform="translate(-146.365 -37.01)"/><path class="b" d="M221.73.117H217.99c-1.929,0-3.8-.029-5.289-.117l.058,4.15c1.2-.584,4.705-.643,4.705-.643h4.091c4.3,0,6.517,2.1,6.517,6.079,0,3.068-1.374,5.114-3.858,5.932l2.572,2.805c3.419-1.461,5.29-4.53,5.29-8.913C232.046,3.478,228.393.117,221.73.117Z" transform="translate(-150.541)"/><path class="b" d="M349.4.1a13.586,13.586,0,0,0,5.056,0c.2.818,17.037,31.942,17.037,31.942a13.309,13.309,0,0,0-5.026,0Z" transform="translate(-247.292 -0.071)"/></g></g></svg>